HIERARCHY
ROOT Yihan_28_06:Solving:Hips
{
	OFFSET 0.000000 0.000000 0.000000
	CHANNELS 6 Xposition Yposition Zposition Xrotation Yrotation Zrotation
	JOINT Yihan_28_06:Solving:Spine
	{
		OFFSET 0.000000 -10.933681 1.754050
		CHANNELS 6 Xposition Yposition Zposition Xrotation Yrotation Zrotation
		JOINT Yihan_28_06:Solving:Spine1
		{
			OFFSET 0.000000 -9.267541 1.634120
			CHANNELS 6 Xposition Yposition Zposition Xrotation Yrotation Zrotation
			JOINT Yihan_28_06:Solving:Spine2
			{
				OFFSET 0.000000 -9.374699 0.820182
				CHANNELS 6 Xposition Yposition Zposition Xrotation Yrotation Zrotation
				JOINT Yihan_28_06:Solving:Spine3
				{
					OFFSET 0.000000 -9.410507 0.000000
					CHANNELS 6 Xposition Yposition Zposition Xrotation Yrotation Zrotation
					JOINT Yihan_28_06:Solving:Neck
					{
						OFFSET 0.000000 -12.099224 -1.209920
						CHANNELS 6 Xposition Yposition Zposition Xrotation Yrotation Zrotation
						JOINT Yihan_28_06:Solving:Neck1
						{
							OFFSET 0.000000 -7.349789 -0.643021
							CHANNELS 6 Xposition Yposition Zposition Xrotation Yrotation Zrotation
							JOINT Yihan_28_06:Solving:Head
							{
								OFFSET 0.000000 -7.265778 -1.281152
								CHANNELS 6 Xposition Yposition Zposition Xrotation Yrotation Zrotation
								JOINT Yihan_28_06:Solving:HeadEnd
								{
									OFFSET 0.000000 -9.728081 0.000002
									CHANNELS 6 Xposition Yposition Zposition Xrotation Yrotation Zrotation
									End Site
									{
										OFFSET 0.000000 -9.728081 0.000002
									}
								}
							}
						}
					}
					JOINT Yihan_28_06:Solving:RightShoulder
					{
						OFFSET 0.000000 -8.642303 -5.270916
						CHANNELS 6 Xposition Yposition Zposition Xrotation Yrotation Zrotation
						JOINT Yihan_28_06:Solving:RightArm
						{
							OFFSET -17.619331 -0.000004 0.000000
							CHANNELS 6 Xposition Yposition Zposition Xrotation Yrotation Zrotation
							JOINT Yihan_28_06:Solving:RightForeArm
							{
								OFFSET -29.732449 -0.000008 0.000000
								CHANNELS 6 Xposition Yposition Zposition Xrotation Yrotation Zrotation
								JOINT Yihan_28_06:Solving:RightHand
								{
									OFFSET -23.617275 -0.000008 0.000000
									CHANNELS 6 Xposition Yposition Zposition Xrotation Yrotation Zrotation
									JOINT Yihan_28_06:Solving:RightHandThumb1
									{
										OFFSET -3.546165 2.953053 -2.636890
										CHANNELS 6 Xposition Yposition Zposition Xrotation Yrotation Zrotation
										End Site
										{
											OFFSET -5.198463 0.000000 -5.246530
										}
									}
									JOINT Yihan_28_06:Solving:RightHandMiddle1
									{
										OFFSET -9.456436 -0.000004 0.060618
										CHANNELS 6 Xposition Yposition Zposition Xrotation Yrotation Zrotation
										End Site
										{
											OFFSET -7.385803 -0.000004 0.000000
										}
									}
								}
							}
						}
					}
					JOINT Yihan_28_06:Solving:LeftShoulder
					{
						OFFSET 0.000000 -8.642303 -5.270916
						CHANNELS 6 Xposition Yposition Zposition Xrotation Yrotation Zrotation
						JOINT Yihan_28_06:Solving:LeftArm
						{
							OFFSET 17.619331 -0.000004 0.000000
							CHANNELS 6 Xposition Yposition Zposition Xrotation Yrotation Zrotation
							JOINT Yihan_28_06:Solving:LeftForeArm
							{
								OFFSET 29.732449 -0.000008 0.000000
								CHANNELS 6 Xposition Yposition Zposition Xrotation Yrotation Zrotation
								JOINT Yihan_28_06:Solving:LeftHand
								{
									OFFSET 23.617275 -0.000008 0.000000
									CHANNELS 6 Xposition Yposition Zposition Xrotation Yrotation Zrotation
									JOINT Yihan_28_06:Solving:LeftHandThumb1
									{
										OFFSET 3.546165 2.953053 -2.636890
										CHANNELS 6 Xposition Yposition Zposition Xrotation Yrotation Zrotation
										End Site
										{
											OFFSET 5.198463 0.000000 -5.246530
										}
									}
									JOINT Yihan_28_06:Solving:LeftHandMiddle1
									{
										OFFSET 9.456436 -0.000004 0.060618
										CHANNELS 6 Xposition Yposition Zposition Xrotation Yrotation Zrotation
										End Site
										{
											OFFSET 7.385803 -0.000004 0.000000
										}
									}
								}
							}
						}
					}
				}
			}
		}
	}
	JOINT Yihan_28_06:Solving:RightUpLeg
	{
		OFFSET -12.221851 0.000000 0.000000
		CHANNELS 6 Xposition Yposition Zposition Xrotation Yrotation Zrotation
		JOINT Yihan_28_06:Solving:RightLeg
		{
			OFFSET 0.000000 44.387260 -0.000006
			CHANNELS 6 Xposition Yposition Zposition Xrotation Yrotation Zrotation
			JOINT Yihan_28_06:Solving:RightFoot
			{
				OFFSET 0.000000 37.410240 -0.000006
				CHANNELS 6 Xposition Yposition Zposition Xrotation Yrotation Zrotation
				JOINT Yihan_28_06:Solving:RightForeFoot
				{
					OFFSET 0.000000 4.107742 -0.000000
					CHANNELS 6 Xposition Yposition Zposition Xrotation Yrotation Zrotation
					JOINT Yihan_28_06:Solving:RightToeBase
					{
						OFFSET 0.000000 0.000000 -16.087208
						CHANNELS 6 Xposition Yposition Zposition Xrotation Yrotation Zrotation
						JOINT Yihan_28_06:Solving:RightToeBaseEnd
						{
							OFFSET 0.000000 0.000000 -3.506769
							CHANNELS 6 Xposition Yposition Zposition Xrotation Yrotation Zrotation
							End Site
							{
								OFFSET 0.000000 -3.506767 0.000000
							}
						}
					}
				}
			}
		}
	}
	JOINT Yihan_28_06:Solving:LeftUpLeg
	{
		OFFSET 12.221851 0.000000 0.000000
		CHANNELS 6 Xposition Yposition Zposition Xrotation Yrotation Zrotation
		JOINT Yihan_28_06:Solving:LeftLeg
		{
			OFFSET 0.000000 44.387260 -0.000006
			CHANNELS 6 Xposition Yposition Zposition Xrotation Yrotation Zrotation
			JOINT Yihan_28_06:Solving:LeftFoot
			{
				OFFSET 0.000000 37.410240 -0.000006
				CHANNELS 6 Xposition Yposition Zposition Xrotation Yrotation Zrotation
				JOINT Yihan_28_06:Solving:LeftForeFoot
				{
					OFFSET 0.000000 4.107742 -0.000000
					CHANNELS 6 Xposition Yposition Zposition Xrotation Yrotation Zrotation
					JOINT Yihan_28_06:Solving:LeftToeBase
					{
						OFFSET 0.000000 0.000000 -16.087208
						CHANNELS 6 Xposition Yposition Zposition Xrotation Yrotation Zrotation
						JOINT Yihan_28_06:Solving:LeftToeBaseEnd
						{
							OFFSET 0.000000 0.000000 -3.932585
							CHANNELS 6 Xposition Yposition Zposition Xrotation Yrotation Zrotation
							End Site
							{
								OFFSET 0.000000 -3.932587 0.000000
							}
						}
					}
				}
			}
		}
	}
}
MOTION
Frames: 4
Frame Time: 0.041667
2.690293 -90.435921 -89.660011 85.751242 12.892951 3.429701 -0.000002 -10.933698 1.754049 10.838947 0.069907 -0.769435 0.000002 -9.267559 1.634106 -1.174674 -0.082726 0.065390 0.000001 -9.374693 0.820181 -2.722422 -2.795828 -0.227116 -0.000001 -9.410518 -0.000011 0.666036 -0.075482 0.487477 -0.000002 -12.099235 -1.209925 -7.034767 -5.418249 1.453434 -0.000003 -7.349809 -0.643015 3.657070 -2.001499 -1.532431 0.000001 -7.265765 -1.281142 10.227629 0.054984 -1.923377 -0.000000 -9.728058 -0.000002 -0.000003 -0.000000 -0.000000 -0.000004 -8.642330 -5.270913 -0.000007 14.653985 4.680616 -17.619335 -0.000001 0.000007 -7.015502 -31.755370 -76.627107 -29.732452 -0.000010 0.000007 12.259428 -3.491243 0.758095 -23.617306 -0.000023 -0.000015 0.419239 2.514641 -9.468166 -3.546204 2.953044 -2.636878 -0.000000 -0.000002 -0.000000 -9.456482 -0.000012 0.060623 -0.000002 0.000001 0.000000 -0.000004 -8.642326 -5.270913 -0.000008 -15.269509 -7.118851 17.619328 0.000011 -0.000011 0.122758 28.890529 78.906300 29.732460 -0.000001 -0.000003 0.592085 17.023575 -0.173314 23.617296 -0.000031 0.000001 -0.660791 -13.217915 -2.887526 3.546157 2.953054 -2.636878 -0.000007 0.000002 -0.000001 9.456455 0.000017 0.060642 -0.000001 -0.000002 -0.000005 -12.221853 -0.000016 -0.000004 8.676088 0.948396 -6.520356 -0.000003 44.387280 -0.000013 -1.046867 -0.000000 -0.000001 -0.000005 37.410244 0.000006 -0.895474 13.625179 2.182358 -0.000003 4.107742 -0.000020 0.000000 -0.000002 0.000000 -0.000007 0.000011 -16.087206 16.912271 -0.000002 -0.000001 -0.000004 0.000000 -3.506766 0.000001 -0.000006 0.000002 12.221854 -0.000003 -0.000004 5.983632 -20.278275 -9.441485 -0.000004 44.387260 -0.000045 7.057679 0.000001 -0.000000 -0.000006 37.410240 -0.000013 -4.081452 -3.145780 10.473957 0.000005 4.107735 -0.000008 -0.000001 0.000000 0.000000 -0.000001 0.000008 -16.087204 -9.234603 0.000001 0.000000 0.000013 -0.000000 -3.932608 -0.000001 0.000001 0.000000 
2.517050 -90.446587 -89.646072 85.670305 13.041033 3.491345 -0.000001 -10.933699 1.754060 10.920803 0.049586 -0.793372 0.000001 -9.267529 1.634133 -1.160361 -0.083451 0.068187 0.000003 -9.374694 0.820179 -2.734514 -2.774324 -0.230338 0.000001 -9.410490 0.000007 0.651107 -0.077230 0.470409 -0.000001 -12.099267 -1.209901 -6.935664 -5.425127 1.515480 0.000000 -7.349802 -0.643028 3.654274 -2.062858 -1.509104 -0.000001 -7.265827 -1.281149 10.223146 0.046963 -1.896624 -0.000001 -9.728027 0.000005 -0.000002 -0.000000 0.000000 0.000002 -8.642281 -5.270922 -0.000007 14.705599 4.643255 -17.619331 0.000005 0.000008 -6.889306 -32.324219 -77.612047 -29.732452 -0.000005 -0.000032 12.460126 -3.608725 0.796805 -23.617304 -0.000020 0.000004 0.422122 2.460437 -9.737902 -3.546144 2.953028 -2.636870 -0.000004 -0.000000 -0.000002 -9.456443 -0.000011 0.060625 0.000004 -0.000000 0.000002 0.000001 -8.642307 -5.270920 -0.000008 -15.207768 -7.128128 17.619331 -0.000043 -0.000009 -0.036262 28.964397 79.733511 29.732456 -0.000009 -0.000017 0.148963 17.038498 -0.043615 23.617300 -0.000023 0.000007 -0.666635 -13.189687 -2.919139 3.546148 2.953040 -2.636889 -0.000005 -0.000007 -0.000004 9.456433 -0.000018 0.060611 -0.000002 0.000000 -0.000003 -12.221856 -0.000002 0.000013 8.746808 0.638531 -6.640020 -0.000002 44.387272 0.000000 -1.071414 -0.000000 -0.000000 0.000000 37.410244 -0.000015 -0.897068 13.710575 2.196221 -0.000003 4.107750 0.000023 -0.000000 0.000001 0.000000 -0.000000 0.000012 -16.087200 16.885778 -0.000000 0.000000 -0.000005 -0.000008 -3.506775 -0.000001 -0.000002 0.000000 12.221852 -0.000013 -0.000014 5.498598 -20.183223 -9.738713 -0.000003 44.387276 -0.000021 8.192540 -0.000001 0.000002 0.000005 37.410244 0.000004 -4.448040 -3.441794 10.374182 0.000001 4.107742 0.000004 0.000000 0.000001 -0.000000 -0.000002 0.000008 -16.087215 -9.377373 -0.000000 -0.000000 0.000004 -0.000008 -3.932578 -0.000001 -0.000001 0.000000 
2.348713 -90.460228 -89.631302 85.582147 13.186330 3.557345 -0.000000 -10.933661 1.754053 11.007099 0.015220 -0.826178 0.000003 -9.267542 1.634115 -1.139956 -0.081458 0.065605 -0.000002 -9.374702 0.820202 -2.744489 -2.726316 -0.240925 0.000002 -9.410542 -0.000024 0.641271 -0.073034 0.479271 -0.000001 -12.099217 -1.209911 -6.868405 -5.437373 1.569858 -0.000000 -7.349812 -0.643029 3.675146 -2.137706 -1.494551 0.000000 -7.265772 -1.281159 10.221827 0.037116 -1.860257 -0.000000 -9.728043 0.000003 -0.000001 -0.000000 0.000000 -0.000002 -8.642315 -5.270923 -0.000006 14.747890 4.616407 -17.619326 0.000034 0.000001 -6.683631 -33.132592 -78.528891 -29.732407 -0.000014 -0.000007 12.418178 -3.856140 0.848392 -23.617292 -0.000008 -0.000006 0.431427 2.486405 -9.846605 -3.546143 2.953008 -2.636899 0.000007 -0.000003 -0.000001 -9.456436 -0.000016 0.060630 0.000005 0.000000 0.000000 -0.000001 -8.642326 -5.270922 -0.000009 -15.180157 -7.141013 17.619329 0.000027 -0.000009 -0.158135 29.130460 80.447252 29.732462 -0.000004 -0.000013 -0.398834 17.139374 0.117568 23.617313 -0.000008 0.000017 -0.673235 -13.198552 -2.945998 3.546182 2.953072 -2.636871 -0.000005 -0.000005 0.000002 9.456471 -0.000011 0.060618 -0.000002 -0.000002 -0.000003 -12.221848 0.000021 -0.000025 8.824366 0.374804 -6.757603 -0.000000 44.387249 -0.000034 -1.095133 -0.000002 0.000000 0.000002 37.410233 0.000017 -0.895601 13.744666 2.220220 -0.000007 4.107742 0.000029 0.000000 0.000000 -0.000000 -0.000001 0.000009 -16.087221 16.852119 0.000001 -0.000000 0.000005 0.000007 -3.506797 -0.000002 -0.000003 0.000000 12.221849 0.000006 0.000001 4.984686 -20.004164 -10.039517 -0.000003 44.387272 -0.000014 9.412779 -0.000001 0.000003 -0.000002 37.410263 0.000007 -4.811316 -3.834767 10.261330 -0.000005 4.107742 0.000005 0.000000 0.000002 0.000000 0.000006 0.000004 -16.087214 -9.551681 0.000001 0.000000 -0.000001 -0.000000 -3.932556 -0.000000 -0.000001 0.000000 
2.187191 -90.479538 -89.616623 85.495684 13.320822 3.607064 0.000001 -10.933680 1.754030 11.095157 -0.021105 -0.853313 0.000001 -9.267578 1.634114 -1.119055 -0.077155 0.060751 -0.000002 -9.374690 0.820172 -2.745335 -2.654871 -0.246167 0.000001 -9.410519 0.000004 0.643040 -0.055935 0.491855 0.000002 -12.099233 -1.209929 -6.812022 -5.466968 1.607753 -0.000000 -7.349794 -0.643013 3.680296 -2.211221 -1.456727 0.000000 -7.265767 -1.281148 10.219451 0.026812 -1.824183 -0.000000 -9.728065 0.000007 -0.000002 -0.000001 0.000000 0.000001 -8.642311 -5.270927 -0.000005 14.748808 4.555937 -17.619326 0.000014 -0.000023 -6.633431 -33.557051 -79.415313 -29.732437 -0.000004 -0.000014 12.693712 -4.040567 0.909268 -23.617281 -0.000003 -0.000008 0.448599 2.485022 -10.235902 -3.546181 2.953032 -2.636876 -0.000004 -0.000000 -0.000001 -9.456459 -0.000003 0.060626 -0.000003 -0.000001 -0.000000 0.000000 -8.642323 -5.270927 -0.000005 -15.160220 -7.137643 17.619335 0.000011 -0.000011 -0.258284 29.346587 81.057209 29.732481 -0.000013 -0.000006 -1.108009 17.306834 0.329686 23.617298 -0.000003 0.000022 -0.698539 -13.223429 -3.050910 3.546148 2.953039 -2.636863 -0.000005 -0.000003 -0.000004 9.456436 -0.000010 0.060657 -0.000000 0.000001 0.000000 -12.221851 -0.000008 -0.000026 8.891805 0.135064 -6.857493 -0.000004 44.387249 -0.000015 -1.103831 0.000000 -0.000001 0.000001 37.410236 -0.000010 -0.910051 13.777712 2.221865 -0.000001 4.107750 0.000011 0.000000 0.000001 0.000000 0.000001 0.000008 -16.087206 16.825713 -0.000002 -0.000000 -0.000009 -0.000008 -3.506780 0.000000 -0.000003 0.000003 12.221851 0.000008 -0.000019 4.437706 -19.777252 -10.324803 0.000008 44.387264 -0.000023 10.712400 0.000002 0.000001 0.000006 37.410233 -0.000024 -5.154316 -4.269651 10.220577 -0.000006 4.107742 0.000031 0.000001 0.000001 0.000000 -0.000007 0.000005 -16.087198 -9.669022 -0.000000 0.000000 -0.000003 -0.000007 -3.932594 0.000001 -0.000001 0.000000 
